<svg width="22" height="18" viewBox="0 0 22 18" fill="none" xmlns="http://www.w3.org/2000/svg">
<path d="M19.667 17.6667H2.33366C1.75902 17.6667 1.20792 17.4384 0.801594 17.0321C0.395265 16.6257 0.166992 16.0746 0.166992 15.5V2.40575C0.191294 1.8476 0.430252 1.32042 0.833977 0.934254C1.2377 0.548091 1.77499 0.3328 2.33366 0.333329H19.667C20.2416 0.333329 20.7927 0.561602 21.1991 0.967931C21.6054 1.37426 21.8337 1.92536 21.8337 2.5V15.5C21.8337 16.0746 21.6054 16.6257 21.1991 17.0321C20.7927 17.4384 20.2416 17.6667 19.667 17.6667ZM2.33366 4.52366V15.5H19.667V4.52366L11.0003 10.3L2.33366 4.52366ZM3.20033 2.5L11.0003 7.7L18.8003 2.5H3.20033Z" fill="#373B8E"/>
</svg>
