<svg width="26" height="24" viewBox="0 0 26 24" fill="none" xmlns="http://www.w3.org/2000/svg">
<path d="M1.76682 2.29679L2.95918 1.27164C4.0776 0.311082 5.74331 0.406224 6.85125 1.4934L9.05766 3.65952C10.0178 4.60291 10.3166 6.0618 9.7963 7.2653L8.34523 10.6162C9.08086 11.9482 10.1214 13.1262 11.4655 14.1508C12.752 15.1479 14.2219 15.8764 15.7883 16.293L18.2928 14.0826C19.2418 13.2465 20.6272 13.1696 21.727 13.8927L24.293 15.5755C25.5735 16.4163 26.1094 18.0914 25.548 19.4951L24.9473 20.9992C24.3483 22.4965 23.0188 23.5076 21.4577 23.6506C17.77 23.9911 13.4992 22.1992 8.64018 18.2769C3.77404 14.3484 0.999468 10.4446 0.319907 6.57005C0.0335799 4.93971 0.583089 3.31374 1.76682 2.29679Z" fill="currentColor"/>
</svg>
