<svg width="30" height="29" viewBox="0 0 30 29" fill="none" xmlns="http://www.w3.org/2000/svg">
<path fill-rule="evenodd" clip-rule="evenodd" d="M8.81591 0.087C10.4155 0.0158182 10.9255 0 15 0C19.0745 0 19.5845 0.0171363 21.1827 0.087C22.7809 0.156864 23.8718 0.403364 24.8264 0.760591C25.8259 1.12573 26.7327 1.6965 27.4827 2.43468C28.2464 3.15836 28.8355 4.03364 29.2118 5.00118C29.5827 5.92391 29.8364 6.97846 29.91 8.52073C29.9836 10.0696 30 10.5626 30 14.5C30 18.4387 29.9823 18.9317 29.91 20.478C29.8377 22.0202 29.5827 23.0748 29.2118 23.9975C28.8354 24.9652 28.2454 25.8419 27.4827 26.5666C26.7327 27.3048 25.8259 27.8743 24.8264 28.2381C23.8718 28.5966 22.7809 28.8418 21.1855 28.913C19.5845 28.9842 19.0745 29 15 29C10.9255 29 10.4155 28.9829 8.81591 28.913C7.22045 28.8431 6.12955 28.5966 5.175 28.2381C4.17398 27.8742 3.26703 27.3038 2.51727 26.5666C1.75415 25.8425 1.16361 24.9662 0.786818 23.9988C0.417273 23.0761 0.163636 22.0215 0.09 20.4793C0.0163636 18.9304 0 18.4374 0 14.5C0 10.5613 0.0177273 10.0683 0.09 8.52336C0.162273 6.97846 0.417273 5.92391 0.786818 5.00118C1.16417 4.03374 1.75516 3.15746 2.51864 2.43336C3.26733 1.69584 4.17337 1.12499 5.17364 0.760591C6.12818 0.403364 7.21909 0.158182 8.81455 0.087H8.81591ZM21.0614 2.697C19.4795 2.62714 19.005 2.61264 15 2.61264C10.995 2.61264 10.5205 2.62714 8.93864 2.697C7.47545 2.76159 6.68182 2.99755 6.15273 3.19659C5.45318 3.46023 4.95273 3.77264 4.42773 4.28014C3.93006 4.74816 3.54706 5.31792 3.30682 5.94764C3.10091 6.45909 2.85682 7.22627 2.79 8.64068C2.71773 10.1698 2.70273 10.6285 2.70273 14.5C2.70273 18.3715 2.71773 18.8302 2.79 20.3593C2.85682 21.7737 3.10091 22.5409 3.30682 23.0524C3.54682 23.6811 3.93 24.2519 4.42773 24.7199C4.91182 25.201 5.50227 25.5714 6.15273 25.8034C6.68182 26.0025 7.47545 26.2384 8.93864 26.303C10.5205 26.3729 10.9936 26.3874 15 26.3874C19.0064 26.3874 19.4795 26.3729 21.0614 26.303C22.5245 26.2384 23.3182 26.0025 23.8473 25.8034C24.5468 25.5398 25.0473 25.2274 25.5723 24.7199C26.07 24.2519 26.4532 23.6811 26.6932 23.0524C26.8991 22.5409 27.1432 21.7737 27.21 20.3593C27.2823 18.8302 27.2973 18.3715 27.2973 14.5C27.2973 10.6285 27.2823 10.1698 27.21 8.64068C27.1432 7.22627 26.8991 6.45909 26.6932 5.94764C26.4205 5.27141 26.0973 4.78764 25.5723 4.28014C25.0881 3.79909 24.4987 3.42887 23.8473 3.19659C23.3182 2.99755 22.5245 2.76159 21.0614 2.697ZM13.0841 18.97C14.1541 19.4005 15.3455 19.4586 16.4549 19.1344C17.5643 18.8101 18.5228 18.1236 19.1667 17.192C19.8107 16.2605 20.1001 15.1418 19.9855 14.0269C19.871 12.912 19.3596 11.8702 18.5386 11.0793C18.0153 10.5738 17.3826 10.1867 16.6859 9.94588C15.9893 9.70509 15.246 9.61661 14.5098 9.68681C13.7735 9.75701 13.0625 9.98414 12.4279 10.3519C11.7933 10.7196 11.251 11.2187 10.84 11.8133C10.4289 12.408 10.1593 13.0833 10.0507 13.7908C9.94206 14.4982 9.99702 15.2201 10.2116 15.9045C10.4263 16.589 10.7952 17.2189 11.2919 17.749C11.7886 18.279 12.4007 18.696 13.0841 18.97ZM9.54818 9.22991C10.2641 8.53783 11.1141 7.98884 12.0495 7.6143C12.9849 7.23974 13.9875 7.04697 15 7.04697C16.0125 7.04697 17.0151 7.23974 17.9505 7.61429C18.8859 7.98884 19.7359 8.53783 20.4518 9.22991C21.1678 9.92199 21.7357 10.7436 22.1231 11.6478C22.5106 12.5521 22.71 13.5213 22.71 14.5C22.71 15.4787 22.5106 16.4479 22.1231 17.3522C21.7357 18.2564 21.1678 19.078 20.4518 19.7701C19.0059 21.1678 17.0448 21.953 15 21.953C12.9552 21.953 10.9941 21.1678 9.54818 19.7701C8.10227 18.3724 7.28997 16.4767 7.28997 14.5C7.28997 12.5233 8.10227 10.6276 9.54818 9.22991ZM24.42 8.15691C24.5974 7.99513 24.7394 7.80058 24.8377 7.58478C24.9359 7.36899 24.9884 7.13633 24.9919 6.90059C24.9955 6.66485 24.9501 6.43081 24.8584 6.21234C24.7667 5.99387 24.6306 5.7954 24.4581 5.62869C24.2857 5.46198 24.0804 5.33041 23.8544 5.24177C23.6283 5.15314 23.3862 5.10924 23.1424 5.11268C22.8985 5.11611 22.6578 5.16682 22.4346 5.26178C22.2113 5.35675 22.0101 5.49404 21.8427 5.66555C21.5172 5.99908 21.339 6.44211 21.346 6.90059C21.3529 7.35907 21.5444 7.79689 21.8798 8.12111C22.2152 8.44534 22.6681 8.63044 23.1424 8.63712C23.6167 8.64381 24.075 8.47155 24.42 8.15691Z" fill="currentColor"/>
</svg>
