<svg width="20" height="13" viewBox="0 0 20 13" fill="none" xmlns="http://www.w3.org/2000/svg">
<path opacity="0.8" d="M12.7273 6.3635C12.7273 7.08682 12.4399 7.78051 11.9285 8.29198C11.417 8.80344 10.7233 9.09078 10 9.09078C9.27668 9.09078 8.58299 8.80344 8.07153 8.29198C7.56006 7.78051 7.27273 7.08682 7.27273 6.3635C7.27273 5.64019 7.56006 4.94649 8.07153 4.43503C8.58299 3.92357 9.27668 3.63623 10 3.63623C10.7233 3.63623 11.417 3.92357 11.9285 4.43503C12.4399 4.94649 12.7273 5.64019 12.7273 6.3635Z" fill="white"/>
<path opacity="0.8" d="M0.510805 7.21918C0.164011 6.6938 0.164011 6.03347 0.510805 5.50809C1.65658 3.7723 4.75049 0 10 0C15.2495 0 18.3434 3.7723 19.4892 5.5081C19.836 6.03347 19.836 6.6938 19.4892 7.21918C18.3434 8.95498 15.2495 12.7273 10 12.7273C4.75049 12.7273 1.65658 8.95498 0.510805 7.21918ZM10 10.4132C12.7273 10.4132 15.6818 8.18182 15.6818 6.36364C15.6818 4.54545 12.7273 2.31405 10 2.31405C7.27273 2.31405 4.31818 4.54545 4.31818 6.36364C4.31818 8.18182 7.27273 10.4132 10 10.4132Z" fill="white"/>
</svg>
