<svg width="32" height="19" viewBox="0 0 32 19" fill="none" xmlns="http://www.w3.org/2000/svg">
<path fill-rule="evenodd" clip-rule="evenodd" d="M31.266 1.28657C31.4873 0.545571 31.266 0 30.206 0H26.7061C25.8155 0 25.4048 0.470929 25.1821 0.990714C25.1821 0.990714 23.4022 5.32814 20.8809 8.14557C20.0649 8.96257 19.6943 9.22179 19.2489 9.22179C19.0263 9.22179 18.6916 8.96257 18.6916 8.22021V1.28657C18.6916 0.396286 18.4463 0 17.705 0H12.2011C11.6451 0 11.3104 0.412571 11.3104 0.804786C11.3104 1.64757 12.5717 1.843 12.7011 4.21529V9.36971C12.7011 10.5002 12.4971 10.7051 12.0517 10.7051C10.8651 10.7051 7.9785 6.34736 6.2652 1.36121C5.93321 0.390857 5.59722 0 4.70257 0H1.19997C0.199996 0 0 0.470929 0 0.990714C0 1.91629 1.18664 6.51429 5.52655 12.5956C8.41982 16.7485 12.4931 19 16.2037 19C18.4289 19 18.7036 18.5006 18.7036 17.6388V14.4997C18.7036 13.4995 18.9143 13.3 19.6196 13.3C20.1396 13.3 21.0289 13.5606 23.1062 15.5624C25.4795 17.936 25.8701 19 27.2061 19H30.706C31.706 19 32.2073 18.5006 31.9193 17.5126C31.602 16.53 30.4687 15.1036 28.9661 13.4113C28.1501 12.4477 26.9261 11.4095 26.5541 10.8897C26.0355 10.2234 26.1835 9.92614 26.5541 9.33307C26.5541 9.33307 30.8207 3.32636 31.2647 1.28657H31.266Z" fill="#373B8E"/>
</svg>
