<?xml version="1.0" encoding="utf-8"?><svg xmlns="http://www.w3.org/2000/svg" xmlns:xlink="http://www.w3.org/1999/xlink"><symbol fill="none" viewBox="0 0 22 18" id="icon-mail" xmlns="http://www.w3.org/2000/svg"><path d="M19.667 17.667H2.334A2.167 2.167 0 0 1 .167 15.5V2.406A2.167 2.167 0 0 1 2.334.333h17.333A2.167 2.167 0 0 1 21.834 2.5v13a2.167 2.167 0 0 1-2.167 2.167ZM2.334 4.524V15.5h17.333V4.524L11 10.3 2.334 4.524ZM3.2 2.5 11 7.7l7.8-5.2H3.2Z" fill="#373B8E"/></symbol><symbol fill="none" viewBox="0 0 22 20" id="icon-star" xmlns="http://www.w3.org/2000/svg"><path d="m11 0 2.586 7.44 7.876.16-6.277 4.76 2.28 7.54L11 15.4l-6.466 4.5 2.281-7.54L.538 7.6l7.876-.16L11 0Z" fill="currentColor"/></symbol></svg>