<?xml version="1.0" encoding="utf-8"?><svg xmlns="http://www.w3.org/2000/svg" xmlns:xlink="http://www.w3.org/1999/xlink"><symbol fill="none" viewBox="0 0 30 30" id="icon-arrow-left" xmlns="http://www.w3.org/2000/svg"><path opacity=".65" fill-rule="evenodd" clip-rule="evenodd" d="M15 0C6.716 0 0 6.716 0 15c0 8.284 6.716 15 15 15 8.284 0 15-6.716 15-15 0-8.284-6.716-15-15-15Zm2.5 10.67L10 15l7.5 4.33v-8.66Z" fill="#101347"/></symbol><symbol fill="none" viewBox="0 0 30 30" id="icon-arrow-right" xmlns="http://www.w3.org/2000/svg"><path opacity=".65" fill-rule="evenodd" clip-rule="evenodd" d="M15 30c8.284 0 15-6.716 15-15 0-8.284-6.716-15-15-15C6.716 0 0 6.716 0 15c0 8.284 6.716 15 15 15Zm-2.5-10.67L20 15l-7.5-4.33v8.66Z" fill="#101347"/></symbol><symbol fill="none" viewBox="0 0 24 24" id="icon-burger" xmlns="http://www.w3.org/2000/svg"><path d="M.112 11.338c.04 2.667 5.545 3.55 12.073 3.34 6.528-.212 11.624-.915 11.584-3.581-.04-2.667-5.63-.015-12.158.197-6.528.211-11.539-2.622-11.499.044ZM.112 19.899c.04 2.666 5.545 3.55 12.073 3.339 6.528-.211 11.624-.914 11.584-3.58-.04-2.667-5.63-.015-12.158.196C5.083 20.066.072 17.232.112 19.9ZM.097 2.332c.06 2.87 5.596 3.872 12.15 3.703 6.555-.168 11.668-.879 11.609-3.75-.06-2.87-5.655-.066-12.21.103C5.091 2.557.037-.54.097 2.332Z" fill="currentColor"/></symbol><symbol fill="none" viewBox="0 0 24 24" id="icon-close" xmlns="http://www.w3.org/2000/svg"><rect x="20.308" width="5.222" height="28.719" rx="2.611" transform="rotate(45 20.308 0)" fill="#fff"/><rect x="24" y="20.308" width="5.222" height="28.719" rx="2.611" transform="rotate(135 24 20.308)" fill="#fff"/></symbol><symbol fill="none" viewBox="0 0 20 13" id="icon-eye" xmlns="http://www.w3.org/2000/svg"><path d="M12.727 6.364a2.728 2.728 0 1 1-5.455 0 2.728 2.728 0 0 1 5.455 0Z" fill="currentColor"/><path d="M.51 7.22a1.537 1.537 0 0 1 0-1.712C1.658 3.772 4.75 0 10 0s8.343 3.772 9.49 5.508a1.537 1.537 0 0 1 0 1.711c-1.147 1.736-4.24 5.508-9.49 5.508S1.657 8.955.51 7.22ZM10 10.412c2.727 0 5.682-2.231 5.682-4.05 0-1.818-2.955-4.049-5.682-4.049-2.727 0-5.682 2.231-5.682 4.05 0 1.818 2.955 4.05 5.682 4.05Z" fill="currentColor"/></symbol><symbol fill="none" viewBox="0 0 30 29" id="icon-instagram" xmlns="http://www.w3.org/2000/svg"><path fill-rule="evenodd" clip-rule="evenodd" d="M8.816.087C10.416.016 10.926 0 15 0c4.075 0 4.584.017 6.183.087 1.598.07 2.689.316 3.643.674a7.41 7.41 0 0 1 2.657 1.674A7.063 7.063 0 0 1 29.212 5c.37.923.624 1.977.698 3.52.074 1.549.09 2.042.09 5.979 0 3.939-.018 4.432-.09 5.978-.072 1.542-.327 2.597-.698 3.52a7.093 7.093 0 0 1-1.73 2.569 7.384 7.384 0 0 1-2.656 1.671c-.954.359-2.045.604-3.64.675-1.602.071-2.111.087-6.186.087-4.075 0-4.585-.017-6.184-.087-1.596-.07-2.686-.316-3.641-.675a7.39 7.39 0 0 1-2.658-1.671 7.09 7.09 0 0 1-1.73-2.568c-.37-.923-.623-1.977-.697-3.52C.016 18.93 0 18.437 0 14.5c0-3.939.018-4.432.09-5.977s.327-2.6.697-3.522a7.095 7.095 0 0 1 1.732-2.568A7.382 7.382 0 0 1 5.174.761C6.128.403 7.219.158 8.814.087h.002Zm12.245 2.61c-1.581-.07-2.056-.084-6.061-.084s-4.48.014-6.061.084c-1.464.065-2.257.3-2.786.5-.7.263-1.2.576-1.725 1.083a4.486 4.486 0 0 0-1.121 1.668c-.206.511-.45 1.278-.517 2.693-.072 1.529-.087 1.988-.087 5.859 0 3.872.015 4.33.087 5.86.067 1.414.31 2.18.517 2.692.24.63.623 1.2 1.12 1.668a4.676 4.676 0 0 0 1.726 1.083c.529.2 1.322.435 2.786.5 1.582.07 2.055.084 6.061.084s4.48-.014 6.061-.084c1.463-.065 2.257-.3 2.786-.5.7-.263 1.2-.576 1.725-1.083a4.49 4.49 0 0 0 1.121-1.668c.206-.511.45-1.278.517-2.693.072-1.529.087-1.988.087-5.859s-.015-4.33-.087-5.86c-.067-1.414-.31-2.18-.517-2.692a4.49 4.49 0 0 0-1.12-1.668 4.673 4.673 0 0 0-1.726-1.083c-.529-.2-1.323-.435-2.786-.5ZM13.084 18.97c1.07.43 2.261.489 3.37.164a4.993 4.993 0 0 0 2.713-1.942c.644-.931.933-2.05.818-3.165a4.771 4.771 0 0 0-1.446-2.948 5.03 5.03 0 0 0-1.853-1.133 5.165 5.165 0 0 0-4.258.406 4.936 4.936 0 0 0-1.588 1.461 4.742 4.742 0 0 0-.79 1.978 4.683 4.683 0 0 0 .162 2.114 4.8 4.8 0 0 0 1.08 1.844 5.01 5.01 0 0 0 1.792 1.221ZM9.548 9.23a7.733 7.733 0 0 1 2.502-1.616 7.941 7.941 0 0 1 5.9 0 7.733 7.733 0 0 1 2.502 1.616 7.44 7.44 0 0 1 1.671 2.418 7.238 7.238 0 0 1 0 5.704 7.44 7.44 0 0 1-1.671 2.418A7.847 7.847 0 0 1 15 21.953a7.847 7.847 0 0 1-5.452-2.183A7.33 7.33 0 0 1 7.29 14.5a7.33 7.33 0 0 1 2.258-5.27ZM24.42 8.157c.177-.162.32-.356.418-.572a1.713 1.713 0 0 0-.38-1.956 1.828 1.828 0 0 0-.604-.387 1.88 1.88 0 0 0-1.42.02 1.824 1.824 0 0 0-.591.404 1.73 1.73 0 0 0-.497 1.235c.007.458.198.896.534 1.22.335.324.788.51 1.262.516.475.007.933-.165 1.278-.48Z" fill="currentColor"/></symbol><symbol fill="none" viewBox="0 0 22 18" id="icon-mail" xmlns="http://www.w3.org/2000/svg"><path d="M19.667 17.667H2.334A2.167 2.167 0 0 1 .167 15.5V2.406A2.167 2.167 0 0 1 2.334.333h17.333A2.167 2.167 0 0 1 21.834 2.5v13a2.167 2.167 0 0 1-2.167 2.167ZM2.334 4.524V15.5h17.333V4.524L11 10.3 2.334 4.524ZM3.2 2.5 11 7.7l7.8-5.2H3.2Z" fill="#373B8E"/></symbol><symbol fill="none" viewBox="0 0 26 24" id="icon-phone" xmlns="http://www.w3.org/2000/svg"><path d="m1.767 2.297 1.192-1.025c1.119-.96 2.784-.866 3.892.221L9.058 3.66c.96.943 1.259 2.402.738 3.605l-1.45 3.351c.735 1.332 1.775 2.51 3.12 3.535a12.16 12.16 0 0 0 4.322 2.142l2.505-2.21c.949-.837 2.334-.913 3.434-.19l2.566 1.682c1.28.841 1.816 2.516 1.255 3.92l-.6 1.504c-.6 1.498-1.93 2.509-3.49 2.652-3.688.34-7.959-1.452-12.818-5.374C3.774 14.348 1 10.445.32 6.57.034 4.94.583 3.314 1.767 2.297Z" fill="currentColor"/></symbol><symbol fill="none" viewBox="0 0 22 20" id="icon-star" xmlns="http://www.w3.org/2000/svg"><path d="m11 0 2.586 7.44 7.876.16-6.277 4.76 2.28 7.54L11 15.4l-6.466 4.5 2.281-7.54L.538 7.6l7.876-.16L11 0Z" fill="currentColor"/></symbol><symbol fill="none" viewBox="0 0 32 19" id="icon-vk" xmlns="http://www.w3.org/2000/svg"><path fill-rule="evenodd" clip-rule="evenodd" d="M31.266 1.287c.221-.741 0-1.287-1.06-1.287h-3.5c-.89 0-1.301.47-1.524.99 0 0-1.78 4.338-4.301 7.156-.816.817-1.187 1.076-1.632 1.076-.223 0-.557-.26-.557-1.002V1.287c0-.89-.246-1.287-.987-1.287h-5.504c-.556 0-.89.413-.89.805 0 .843 1.26 1.038 1.39 3.41V9.37c0 1.13-.204 1.335-.65 1.335-1.186 0-4.072-4.358-5.786-9.344C5.933.391 5.597 0 4.703 0H1.2C.2 0 0 .47 0 .99c0 .926 1.187 5.524 5.527 11.606C8.42 16.748 12.493 19 16.204 19c2.225 0 2.5-.5 2.5-1.361v-3.14c0-1 .21-1.199.916-1.199.52 0 1.409.26 3.486 2.262C25.48 17.936 25.87 19 27.206 19h3.5c1 0 1.501-.5 1.213-1.487-.317-.983-1.45-2.41-2.953-4.102-.816-.963-2.04-2.002-2.412-2.521-.518-.667-.37-.964 0-1.557 0 0 4.267-6.007 4.71-8.046h.002Z" fill="currentColor"/></symbol></svg>