<svg width="24" height="24" viewBox="0 0 24 24" fill="none" xmlns="http://www.w3.org/2000/svg">
<path d="M0.112154 11.3381C0.15195 14.0046 5.65718 14.8887 12.1852 14.6774C18.7131 14.4661 23.809 13.7635 23.7692 11.097C23.7294 8.43048 18.1392 11.0824 11.6112 11.2937C5.08326 11.5051 0.0723578 8.67158 0.112154 11.3381Z" fill="white"/>
<path d="M0.112154 19.8987C0.15195 22.5652 5.65718 23.4493 12.1852 23.238C18.7131 23.0266 23.809 22.3241 23.7692 19.6576C23.7294 16.991 18.1392 19.643 11.6112 19.8543C5.08326 20.0656 0.0723578 17.2321 0.112154 19.8987Z" fill="white"/>
<path d="M0.0971337 2.3321C0.15682 5.20293 5.69262 6.20416 12.2475 6.0354C18.8024 5.86664 23.9153 5.15622 23.8556 2.28539C23.796 -0.585437 18.201 2.21902 11.6461 2.38778C5.09117 2.55653 0.0374469 -0.538731 0.0971337 2.3321Z" fill="white"/>
</svg>
